HIERARCHY
ROOT Hips
{
	OFFSET 0.000000 89.005402 0.000000
	CHANNELS 6 Xposition Yposition Zposition Xrotation Yrotation Zrotation
	JOINT Spine
	{
		OFFSET 0.116900 10.681000 0.373400
		CHANNELS 3 Xrotation Yrotation Zrotation
		JOINT Spine1
		{
			OFFSET 0.000000 13.840401 0.053500
			CHANNELS 3 Xrotation Yrotation Zrotation
			JOINT Spine2
			{
				OFFSET 0.000000 14.712700 -0.366200
				CHANNELS 3 Xrotation Yrotation Zrotation
				JOINT Neck
				{
					OFFSET 0.000000 35.415497 -3.314200
					CHANNELS 3 Xrotation Yrotation Zrotation
					JOINT Head
					{
						OFFSET 0.000000 16.899200 1.218300
						CHANNELS 3 Xrotation Yrotation Zrotation
						JOINT HeadTop_End
						{
							OFFSET 0.000000 22.206207 2.192500
							CHANNELS 3 Xrotation Yrotation Zrotation
							End Site
							{
								OFFSET 0.000000 22.314178 0.000000
							}
						}
					}
				}
				JOINT LeftShoulder
				{
					OFFSET 12.896400 26.716293 -4.548400
					CHANNELS 3 Xrotation Yrotation Zrotation
					JOINT LeftArm
					{
						OFFSET 19.027000 -4.857010 -1.718400
						CHANNELS 3 Xrotation Yrotation Zrotation
						JOINT LeftForeArm
						{
							OFFSET 24.179897 0.000000 0.000000
							CHANNELS 3 Xrotation Yrotation Zrotation
							JOINT LeftHand
							{
								OFFSET 27.156403 0.000000 0.000000
								CHANNELS 3 Xrotation Yrotation Zrotation
								JOINT LeftHandIndex1
								{
									OFFSET 16.441200 0.000000 0.000000
									CHANNELS 3 Xrotation Yrotation Zrotation
									JOINT LeftHandIndex2
									{
										OFFSET 4.821899 0.000000 0.000000
										CHANNELS 3 Xrotation Yrotation Zrotation
										JOINT LeftHandIndex3
										{
											OFFSET 6.386497 0.000000 0.000000
											CHANNELS 3 Xrotation Yrotation Zrotation
											JOINT LeftHandIndex4
											{
												OFFSET 5.188988 0.000000 0.000000
												CHANNELS 3 Xrotation Yrotation Zrotation
												End Site
												{
													OFFSET -0.178703 5.185913 0.000177
												}
											}
										}
									}
								}
								JOINT LeftHandThumb1
								{
									OFFSET 6.534897 -5.032593 5.900300
									CHANNELS 3 Xrotation Yrotation Zrotation
									JOINT LeftHandThumb2
									{
										OFFSET 3.818176 -2.204422 2.204423
										CHANNELS 3 Xrotation Yrotation Zrotation
										JOINT LeftHandThumb3
										{
											OFFSET 3.252098 -1.877594 1.877601
											CHANNELS 3 Xrotation Yrotation Zrotation
											JOINT LeftHandThumb4
											{
												OFFSET 5.251778 -3.032120 3.032117
												CHANNELS 3 Xrotation Yrotation Zrotation
												End Site
												{
													OFFSET 0.000023 6.780014 0.000000
												}
											}
										}
									}
								}
							}
						}
					}
				}
				JOINT RightShoulder
				{
					OFFSET -12.896300 26.716293 -4.548400
					CHANNELS 3 Xrotation Yrotation Zrotation
					JOINT RightArm
					{
						OFFSET -19.027000 -4.857010 -1.718400
						CHANNELS 3 Xrotation Yrotation Zrotation
						JOINT RightForeArm
						{
							OFFSET -24.179897 0.000000 0.000000
							CHANNELS 3 Xrotation Yrotation Zrotation
							JOINT RightHand
							{
								OFFSET -27.156403 0.000000 0.000000
								CHANNELS 3 Xrotation Yrotation Zrotation
								JOINT RightHandThumb1
								{
									OFFSET -6.591202 -4.852203 5.988100
									CHANNELS 3 Xrotation Yrotation Zrotation
									JOINT RightHandThumb2
									{
										OFFSET -3.818176 -2.204422 2.204423
										CHANNELS 3 Xrotation Yrotation Zrotation
										JOINT RightHandThumb3
										{
											OFFSET -3.252098 -1.877594 1.877601
											CHANNELS 3 Xrotation Yrotation Zrotation
											JOINT RightHandThumb4
											{
												OFFSET -5.251778 -3.032120 3.032117
												CHANNELS 3 Xrotation Yrotation Zrotation
												End Site
												{
													OFFSET -0.000023 6.780014 0.000000
												}
											}
										}
									}
								}
								JOINT RightHandIndex1
								{
									OFFSET -16.029404 0.000000 0.000000
									CHANNELS 3 Xrotation Yrotation Zrotation
									JOINT RightHandIndex2
									{
										OFFSET -5.213303 0.000000 0.000000
										CHANNELS 3 Xrotation Yrotation Zrotation
										JOINT RightHandIndex3
										{
											OFFSET -6.386528 0.000000 0.000000
											CHANNELS 3 Xrotation Yrotation Zrotation
											JOINT RightHandIndex4
											{
												OFFSET -5.189026 0.000000 0.000000
												CHANNELS 3 Xrotation Yrotation Zrotation
												End Site
												{
													OFFSET 0.236702 5.183624 0.001972
												}
											}
										}
									}
								}
							}
						}
					}
				}
			}
		}
	}
	JOINT LeftUpLeg
	{
		OFFSET 14.073000 -7.904099 -1.463000
		CHANNELS 3 Xrotation Yrotation Zrotation
		JOINT LeftLeg
		{
			OFFSET -0.109806 -34.073280 4.093200
			CHANNELS 3 Xrotation Yrotation Zrotation
			JOINT LeftFoot
			{
				OFFSET 0.109806 -29.899420 -6.319000
				CHANNELS 3 Xrotation Yrotation Zrotation
				JOINT LeftToeBase
				{
					OFFSET 1.551100 -14.988700 20.535801
					CHANNELS 3 Xrotation Yrotation Zrotation
					JOINT LeftToe_End
					{
						OFFSET 0.221200 0.570800 13.248301
						CHANNELS 3 Xrotation Yrotation Zrotation
						End Site
						{
							OFFSET 0.000000 13.262435 0.000000
						}
					}
				}
			}
		}
	}
	JOINT RightUpLeg
	{
		OFFSET -13.839300 -7.904099 -1.463000
		CHANNELS 3 Xrotation Yrotation Zrotation
		JOINT RightLeg
		{
			OFFSET 0.109694 -34.073219 4.093300
			CHANNELS 3 Xrotation Yrotation Zrotation
			JOINT RightFoot
			{
				OFFSET -0.109694 -29.899384 -6.319200
				CHANNELS 3 Xrotation Yrotation Zrotation
				JOINT RightToeBase
				{
					OFFSET -1.551100 -14.988700 20.535801
					CHANNELS 3 Xrotation Yrotation Zrotation
					JOINT RightToe_End
					{
						OFFSET -0.221200 0.570900 13.248299
						CHANNELS 3 Xrotation Yrotation Zrotation
						End Site
						{
							OFFSET 0.000000 13.262440 0.000000
						}
					}
				}
			}
		}
	}
}
MOTION
Frames: 4
Frame Time: 0.033333
8.846069 67.605125 193.665359 28.905600 14.364856 -6.831194 12.393851 -4.066849 0.854583 12.371721 8.832696 0.446504 12.083886 9.343400 0.365091 -14.439028 -9.442385 2.500428 -20.653246 -33.793006 -6.169908 -0.000002 0.000000 0.000001 9.456441 -25.001414 18.120453 101.727417 -122.328961 90.739603 -0.000538 -81.791679 -0.000523 21.308877 -61.941872 36.086553 2.908386 -17.773009 4.835600 1.298250 3.679034 -38.862670 0.207538 1.547045 -15.280755 0.000000 0.000002 0.000000 22.767829 -18.933523 16.923887 5.842686 25.822546 17.505951 -5.727545 16.381813 15.028708 0.000002 0.000002 -0.000002 2.938565 9.606108 -15.173704 -79.463985 7.175716 56.777450 -0.000002 130.909509 -0.000004 -2.407714 -10.033942 37.173489 -38.080688 15.469209 -6.898608 10.602182 -23.494234 -4.248469 -2.631441 -46.724102 -22.352660 0.000002 0.000000 0.000004 8.579560 11.013766 5.337343 1.115699 -3.026353 40.466330 0.738400 -2.518396 32.677780 0.000002 -0.000002 -0.000001 -72.100604 -10.293378 32.318328 60.756705 -3.593784 -0.718335 -1.236101 2.854938 -30.673775 -4.156725 -0.000009 0.000003 -0.000000 -0.000001 0.000000 -97.281496 -3.514983 -14.107208 37.436602 1.853567 -1.492936 52.628821 -24.924749 21.526075 -14.857246 0.480584 -5.292012 0.000000 0.000001 0.000000 
10.312170 63.189400 194.981384 26.219877 15.890935 -4.910038 13.488559 -4.388287 2.561868 12.629810 8.893587 0.992212 12.230161 9.557142 0.868035 -14.359651 -10.103231 0.333398 -19.207475 -35.177158 -6.813389 -0.000001 0.000000 -0.000000 9.596234 -26.660737 15.742391 101.441450 -120.206985 93.620098 0.000106 -81.450095 0.000112 20.985864 -62.492625 37.615617 2.944573 -17.519994 4.898995 1.298267 3.679052 -38.862762 0.207547 1.547044 -15.280793 -0.000001 -0.000000 0.000002 22.774849 -18.675043 16.893109 5.842685 25.822538 17.505961 -5.727549 16.381831 15.028732 -0.000001 -0.000000 -0.000000 3.191630 8.117076 -19.504449 -80.000162 4.269353 56.957665 0.000025 127.213339 -0.000030 -5.572905 -7.441424 37.026777 -38.080678 15.469222 -6.898614 10.602174 -23.494232 -4.248469 -2.631392 -46.724095 -22.352632 -0.000001 0.000001 0.000002 8.579558 11.013778 5.337320 1.115700 -3.026365 40.466344 0.738393 -2.518403 32.677773 -0.000001 -0.000001 -0.000003 -72.096219 -8.527528 32.050775 69.574192 -3.865115 -1.220600 -9.703381 4.529158 -28.300838 -2.690274 0.000000 -0.000006 -0.000000 -0.000001 -0.000000 -99.886619 -3.271422 -14.641830 45.822841 3.391543 -1.807374 41.938663 -28.264199 9.336506 -15.761777 -0.000014 0.000006 0.000000 0.000001 0.000000 
11.356471 61.267960 195.206024 25.389625 17.013482 -3.297838 14.411496 -4.070575 4.384813 12.859300 8.938610 1.468589 12.342979 9.752339 1.293235 -15.027803 -10.292218 -2.011369 -18.878103 -36.593374 -7.367268 -0.000003 -0.000000 0.000001 9.894766 -28.355242 14.209732 102.474667 -118.645659 98.769986 0.000230 -82.260503 0.000241 20.033425 -61.729337 38.445752 2.953256 -17.459015 4.914265 1.298242 3.679037 -38.862762 0.207544 1.547072 -15.280830 0.000001 -0.000000 -0.000002 22.776579 -18.612759 16.885737 5.842690 25.822550 17.505956 -5.727549 16.381835 15.028720 0.000003 0.000002 0.000001 3.381648 6.531231 -24.632497 -81.766346 0.753069 57.707005 0.000044 124.175353 -0.000057 -7.486790 -5.526213 38.089356 -38.080685 15.469216 -6.898623 10.602185 -23.494232 -4.248458 -2.631415 -46.724067 -22.352638 0.000001 -0.000002 -0.000001 8.579562 11.013776 5.337302 1.115703 -3.026370 40.466357 0.738397 -2.518408 32.677746 0.000001 0.000003 -0.000001 -72.283598 -5.357307 30.667864 72.878371 -2.298882 -1.316915 -14.633233 4.951231 -25.913526 -0.943194 -0.000018 0.000004 0.000000 -0.000001 0.000000 -101.419505 -4.168190 -15.714918 49.546438 4.836422 -2.869573 33.560715 -28.175596 3.868702 -17.014034 -0.000011 0.000004 0.000000 0.000002 -0.000000 
12.044207 62.209641 194.417740 27.373405 17.535382 -2.568423 14.767943 -3.351876 6.266243 12.798321 8.981914 1.908744 12.165031 9.922038 1.687470 -17.038856 -10.113944 -4.132927 -18.654129 -37.383336 -7.503690 0.000002 -0.000000 -0.000001 10.137339 -29.649838 13.089077 104.139314 -117.179272 103.570543 0.000445 -83.480484 0.000446 18.851373 -60.053912 39.798283 2.956139 -17.439862 4.919474 1.298249 3.679032 -38.862663 0.207535 1.547033 -15.280711 -0.000001 -0.000000 0.000002 22.777404 -18.592992 16.883995 5.842690 25.822539 17.505918 -5.727561 16.381806 15.028732 -0.000001 -0.000000 -0.000003 3.310729 4.594304 -30.051705 -82.408923 -3.647231 59.736787 -0.000024 124.150272 0.000020 -7.636708 -4.739995 39.229659 -38.080685 15.469209 -6.898617 10.602171 -23.494232 -4.248476 -2.631422 -46.724095 -22.352661 0.000001 -0.000001 0.000002 8.579566 11.013771 5.337334 1.115698 -3.026360 40.466323 0.738400 -2.518414 32.677770 0.000001 0.000002 -0.000001 -73.347551 -1.783279 27.559726 69.844292 1.076477 -0.486494 -14.107954 4.267389 -24.762738 -0.000062 -0.000015 -0.000001 0.000000 -0.000002 0.000000 -100.743043 -6.090811 -16.815355 46.275775 6.218614 -3.823125 27.108329 -26.770288 2.989795 -13.478617 0.000008 0.000001 0.000000 0.000001 0.000000 
